<svg width="24" height="24" viewBox="0 0 24 24" fill="none" xmlns="http://www.w3.org/2000/svg">
<g clip-path="url(#clip0_133_139)">
<path fill-rule="evenodd" clip-rule="evenodd" d="M0.907494 5.75C0.943994 5.105 0.982994 4.5455 1.02199 4.068C1.15549 2.424 2.42399 1.1555 4.06799 1.022C5.70349 0.889 8.29949 0.75 12 0.75C15.7005 0.75 18.2965 0.889 19.932 1.022C21.576 1.1555 22.8445 2.424 22.978 4.068C23.017 4.5455 23.056 5.105 23.0925 5.75H0.907494ZM3.74999 3.5C3.74999 3.30109 3.82901 3.11032 3.96966 2.96967C4.11032 2.82902 4.30108 2.75 4.49999 2.75H5.49999C5.69891 2.75 5.88967 2.82902 6.03032 2.96967C6.17098 3.11032 6.24999 3.30109 6.24999 3.5C6.24999 3.69891 6.17098 3.88968 6.03032 4.03033C5.88967 4.17098 5.69891 4.25 5.49999 4.25H4.49999C4.30108 4.25 4.11032 4.17098 3.96966 4.03033C3.82901 3.88968 3.74999 3.69891 3.74999 3.5ZM8.49999 2.75C8.30108 2.75 8.11032 2.82902 7.96966 2.96967C7.82901 3.11032 7.74999 3.30109 7.74999 3.5C7.74999 3.69891 7.82901 3.88968 7.96966 4.03033C8.11032 4.17098 8.30108 4.25 8.49999 4.25H9.49999C9.69891 4.25 9.88967 4.17098 10.0303 4.03033C10.171 3.88968 10.25 3.69891 10.25 3.5C10.25 3.30109 10.171 3.11032 10.0303 2.96967C9.88967 2.82902 9.69891 2.75 9.49999 2.75H8.49999Z" fill="#0485F7"/>
<path fill-rule="evenodd" clip-rule="evenodd" d="M4.068 22.978C5.7035 23.111 8.2995 23.25 12 23.25C15.7005 23.25 18.2965 23.111 19.932 22.978C21.576 22.8445 22.8445 21.576 22.978 19.932C23.111 18.2965 23.25 15.7005 23.25 12C23.25 10.145 23.215 8.568 23.1635 7.25H0.836496C0.776775 8.83262 0.747936 10.4163 0.749996 12C0.749996 15.7005 0.888996 18.2965 1.022 19.932C1.1555 21.576 2.424 22.8445 4.068 22.978ZM5.712 12.9755C6.31034 13.2858 6.89676 13.6185 7.47 13.973C7.956 14.2765 8.4555 14.595 8.8655 15C8.4555 15.405 7.956 15.723 7.47 16.027C6.84611 16.4127 6.20657 16.7725 5.553 17.1055C5.31624 17.2246 5.13626 17.4325 5.0524 17.6839C4.96854 17.9353 4.98763 18.2096 5.1055 18.447C5.164 18.5647 5.24517 18.6697 5.34437 18.756C5.44356 18.8422 5.55881 18.908 5.68351 18.9496C5.80821 18.9912 5.93989 19.0077 6.071 18.9983C6.20211 18.9888 6.33005 18.9535 6.4475 18.8945L6.632 18.7995C7.27824 18.4651 7.91137 18.106 8.53 17.723C9.0465 17.4 9.599 17.023 10.0335 16.643C10.514 16.2225 11 15.678 11 15C11 14.322 10.514 13.777 10.0335 13.3565C9.5985 12.9765 9.0465 12.5995 8.53 12.2765C7.85259 11.8569 7.15781 11.4661 6.4475 11.105C6.33005 11.046 6.20211 11.0107 6.071 11.0012C5.93989 10.9918 5.80821 11.0083 5.68351 11.0499C5.55881 11.0915 5.44356 11.1573 5.34437 11.2435C5.24517 11.3298 5.164 11.4348 5.1055 11.5525C4.98763 11.7899 4.96854 12.0642 5.0524 12.3156C5.13626 12.567 5.31624 12.7749 5.553 12.894L5.712 12.9755ZM13 17C12.7348 17 12.4804 17.1054 12.2929 17.2929C12.1054 17.4804 12 17.7348 12 18C12 18.2652 12.1054 18.5196 12.2929 18.7071C12.4804 18.8946 12.7348 19 13 19H18C18.2652 19 18.5196 18.8946 18.7071 18.7071C18.8946 18.5196 19 18.2652 19 18C19 17.7348 18.8946 17.4804 18.7071 17.2929C18.5196 17.1054 18.2652 17 18 17H13Z" fill="#0485F7"/>
</g>
<defs>
<clipPath id="clip0_133_139">
<rect width="24" height="24" fill="white"/>
</clipPath>
</defs>
</svg>
