<svg xmlns="http://www.w3.org/2000/svg" width="512" height="512"><path d="M26.633.066h458.734C500.074.066 512 8.106 512 18.023c0 9.915-11.926 17.954-26.633 17.954H26.633C11.926 35.977 0 27.937 0 18.023 0 8.105 11.926.066 26.633.066M51.422 51.938H460.57c9.403 0 17.024 5.132 17.024 11.468S469.973 74.88 460.57 74.88H51.422c-9.399 0-17.02-5.137-17.02-11.473s7.621-11.468 17.02-11.468M51.422 488.988H460.57c9.403 0 17.024 5.137 17.024 11.473s-7.621 11.473-17.024 11.473H51.422c-9.399 0-17.02-5.137-17.02-11.473s7.621-11.473 17.02-11.473M84 86.52c9.809 0 17.758 5.355 17.758 11.968v368.45c0 6.613-7.95 11.972-17.758 11.972-9.805 0-17.754-5.36-17.754-11.973V98.488c0-6.613 7.95-11.968 17.754-11.968M428 86.52c9.805 0 17.754 5.355 17.754 11.968v368.45c0 6.613-7.95 11.972-17.754 11.972-9.809 0-17.758-5.36-17.758-11.973V98.488c0-6.613 7.95-11.968 17.758-11.968M342 86.52c9.805 0 17.754 5.355 17.754 11.968v368.45c0 6.613-7.95 11.972-17.754 11.972-9.809 0-17.758-5.36-17.758-11.973V98.488c0-6.613 7.95-11.968 17.758-11.968M256 86.52c9.805 0 17.758 5.355 17.758 11.968v368.45c0 6.613-7.953 11.972-17.758 11.972s-17.758-5.36-17.758-11.973V98.488c0-6.613 7.953-11.968 17.758-11.968M170 86.52c9.809 0 17.758 5.355 17.758 11.968v368.45c0 6.613-7.95 11.972-17.758 11.972-9.805 0-17.754-5.36-17.754-11.973V98.488c0-6.613 7.95-11.968 17.754-11.968m0 0" style="stroke:none;fill-rule:nonzero;fill:#e6bf7e;fill-opacity:1"></path></svg>